<mxfile host="app.diagrams.net" agent="Mozilla/5.0 (Windows NT 10.0; Win64; x64) AppleWebKit/537.36 (KHTML, like Gecko) Chrome/138.0.0.0 Safari/537.36 OPR/122.0.0.0" version="28.2.8">
  <diagram name="Letterboxd DB Diagram" id="0">
    <mxGraphModel dx="1381" dy="1934" grid="1" gridSize="10" guides="1" tooltips="1" connect="1" arrows="1" fold="1" page="1" pageScale="1" pageWidth="827" pageHeight="1169" math="0" shadow="0">
      <root>
        <mxCell id="0" />
        <mxCell id="1" parent="0" />
        <mxCell id="users" value="Users&#xa;&#xa;id (PK)&#xa;name&#xa;email&#xa;password_hash&#xa;avatar_url&#xa;bio&#xa;created_at&#xa;updated_at" style="shape=rectangle;whiteSpace=wrap;rounded=1;" parent="1" vertex="1">
          <mxGeometry x="40" y="40" width="200" height="160" as="geometry" />
        </mxCell>
        <mxCell id="movies" value="Movies&#xa;&#xa;id (PK)&#xa;title&#xa;year&#xa;director&#xa;description&#xa;poster_url&#xa;created_at" style="shape=rectangle;whiteSpace=wrap;rounded=1;" parent="1" vertex="1">
          <mxGeometry x="340" y="40" width="200" height="160" as="geometry" />
        </mxCell>
        <mxCell id="reviews" value="Reviews&#xa;&#xa;id (PK)&#xa;user_id (FK)&#xa;movie_id (FK)&#xa;rating&#xa;review_text&#xa;liked&#xa;created_at&#xa;updated_at" style="shape=rectangle;whiteSpace=wrap;rounded=1;" parent="1" vertex="1">
          <mxGeometry x="30" y="-190" width="220" height="180" as="geometry" />
        </mxCell>
        <mxCell id="75cceQN7k8uqzCkPFdkM-1" style="edgeStyle=orthogonalEdgeStyle;rounded=0;orthogonalLoop=1;jettySize=auto;html=1;" edge="1" parent="1" source="watchlist">
          <mxGeometry relative="1" as="geometry">
            <mxPoint x="690" y="540" as="targetPoint" />
          </mxGeometry>
        </mxCell>
        <mxCell id="watchlist" value="WatchlistÂ &#xa;&#xa;id (PK)&#xa;user_id (FK)&#xa;movie_id (FK)&#xa;created_at&#xa;status" style="shape=rectangle;whiteSpace=wrap;rounded=1;" parent="1" vertex="1">
          <mxGeometry x="340" y="470" width="200" height="140" as="geometry" />
        </mxCell>
        <mxCell id="follows" value="Follows&#xa;&#xa;id (PK)&#xa;follower_id (FK)&#xa;following_id (FK)&#xa;created_at" style="shape=rectangle;whiteSpace=wrap;rounded=1;" parent="1" vertex="1">
          <mxGeometry x="40" y="470" width="200" height="140" as="geometry" />
        </mxCell>
        <mxCell id="r1" parent="1" source="reviews" target="users" edge="1">
          <mxGeometry relative="1" as="geometry" />
        </mxCell>
        <mxCell id="r2" parent="1" source="reviews" target="movies" edge="1">
          <mxGeometry relative="1" as="geometry" />
        </mxCell>
        <mxCell id="r3" parent="1" source="watchlist" target="users" edge="1">
          <mxGeometry relative="1" as="geometry" />
        </mxCell>
        <mxCell id="r4" parent="1" source="watchlist" target="movies" edge="1">
          <mxGeometry relative="1" as="geometry" />
        </mxCell>
        <mxCell id="r5" parent="1" source="follows" target="users" edge="1">
          <mxGeometry relative="1" as="geometry" />
        </mxCell>
        <mxCell id="75cceQN7k8uqzCkPFdkM-2" value="&lt;br&gt;&lt;p data-end=&quot;216&quot; data-start=&quot;193&quot;&gt;&lt;strong data-end=&quot;214&quot; data-start=&quot;193&quot;&gt;Watchlist_Changes&lt;/strong&gt;&lt;/p&gt;&lt;p data-end=&quot;290&quot; data-start=&quot;218&quot;&gt;id (PK)&lt;br&gt;watchlist_id (FK)&lt;br&gt;changed_at&lt;br&gt;change_reason&lt;br&gt;action_type&lt;/p&gt;&lt;div&gt;&lt;br/&gt;&lt;/div&gt;" style="rounded=1;whiteSpace=wrap;html=1;" vertex="1" parent="1">
          <mxGeometry x="680" y="480" width="190" height="120" as="geometry" />
        </mxCell>
      </root>
    </mxGraphModel>
  </diagram>
</mxfile>
